HIERARCHY
ROOT Hips
{
	OFFSET -0.302719 85.452522 8.560009
	CHANNELS 6 Xposition Yposition Zposition Zrotation Yrotation Xrotation 
	JOINT Spine
	{
		OFFSET -0.000000 8.814246 -2.080107
		CHANNELS 3 Zrotation Yrotation Xrotation
		JOINT Spine1
		{
			OFFSET -0.000000 8.844141 0.000000
			CHANNELS 3 Zrotation Yrotation Xrotation
			JOINT Spine2
			{
				OFFSET -0.000000 11.682268 0.000000
				CHANNELS 3 Zrotation Yrotation Xrotation
				JOINT Spine3
				{
					OFFSET -0.000000 11.746700 0.000000
					CHANNELS 3 Zrotation Yrotation Xrotation
					JOINT Neck
					{
						OFFSET -0.000000 17.658264 0.000000
						CHANNELS 3 Zrotation Yrotation Xrotation
						JOINT Neck1
						{
							OFFSET -0.000000 5.101515 0.000000
							CHANNELS 3 Zrotation Yrotation Xrotation
							JOINT Head
							{
								OFFSET 0.000000 5.101515 -0.000000
								CHANNELS 3 Zrotation Yrotation Xrotation
								JOINT HeadEnd
								{
									OFFSET 0.000000 11.655085 -0.000000
									CHANNELS 3 Zrotation Yrotation Xrotation
									End Site
									{
										OFFSET 0.000000 0.000000 0.000000
									}
								}
							}
						}
					}
					JOINT RightShoulder
					{
						OFFSET -2.625389 11.175210 -0.000000
						CHANNELS 3 Zrotation Yrotation Xrotation
						JOINT RightArm
						{
							OFFSET -0.000000 10.434715 -0.000000
							CHANNELS 3 Zrotation Yrotation Xrotation
							JOINT RightForeArm
							{
								OFFSET -0.000000 29.628420 0.000000
								CHANNELS 3 Zrotation Yrotation Xrotation
								JOINT RightHand
								{
									OFFSET -0.000000 22.857611 0.000000
									CHANNELS 3 Zrotation Yrotation Xrotation
									JOINT RightHandThumb1
									{
										OFFSET -2.867323 3.959563 2.944291
										CHANNELS 3 Zrotation Yrotation Xrotation
										JOINT RightHandThumb2
										{
											OFFSET -0.000000 3.350399 0.000000
											CHANNELS 3 Zrotation Yrotation Xrotation
											JOINT RightHandThumb3
											{
												OFFSET 0.000000 3.756509 0.000000
												CHANNELS 3 Zrotation Yrotation Xrotation
												JOINT RightHandThumb4
												{
													OFFSET 0.000000 3.147345 0.000000
													CHANNELS 3 Zrotation Yrotation Xrotation
													End Site
													{
														OFFSET 0.000000 0.000000 0.000000
													}
												}
											}
										}
									}
									JOINT RightHandIndex1
									{
										OFFSET -0.086752 10.030893 2.345280
										CHANNELS 3 Zrotation Yrotation Xrotation
										JOINT RightHandIndex2
										{
											OFFSET 0.000000 4.061090 -0.000000
											CHANNELS 3 Zrotation Yrotation Xrotation
											JOINT RightHandIndex3
											{
												OFFSET -0.000000 3.248873 0.000000
												CHANNELS 3 Zrotation Yrotation Xrotation
												JOINT RightHandIndex4
												{
													OFFSET -0.000000 2.639709 0.000000
													CHANNELS 3 Zrotation Yrotation Xrotation
													End Site
													{
														OFFSET 0.000000 0.000000 0.000000
													}
												}
											}
										}
									}
									JOINT RightHandMiddle1
									{
										OFFSET 0.104102 9.502952 0.006768
										CHANNELS 3 Zrotation Yrotation Xrotation
										JOINT RightHandMiddle2
										{
											OFFSET -0.000000 4.568727 0.000000
											CHANNELS 3 Zrotation Yrotation Xrotation
											JOINT RightHandMiddle3
											{
												OFFSET -0.000000 3.654981 -0.000000
												CHANNELS 3 Zrotation Yrotation Xrotation
												JOINT RightHandMiddle4
												{
													OFFSET -0.000000 2.741236 -0.000000
													CHANNELS 3 Zrotation Yrotation Xrotation
													End Site
													{
														OFFSET 0.000000 0.000000 0.000000
													}
												}
											}
										}
									}
									JOINT RightHandRing1
									{
										OFFSET 0.086752 8.921708 -2.267442
										CHANNELS 3 Zrotation Yrotation Xrotation
										JOINT RightHandRing2
										{
											OFFSET 0.000000 4.061090 -0.000000
											CHANNELS 3 Zrotation Yrotation Xrotation
											JOINT RightHandRing3
											{
												OFFSET 0.000000 3.654981 -0.000000
												CHANNELS 3 Zrotation Yrotation Xrotation
												JOINT RightHandRing4
												{
													OFFSET -0.000000 2.741236 0.000000
													CHANNELS 3 Zrotation Yrotation Xrotation
													End Site
													{
														OFFSET 0.000000 0.000000 0.000000
													}
												}
											}
										}
									}
									JOINT RightHandPinky1
									{
										OFFSET -0.173504 7.976997 -4.467199
										CHANNELS 3 Zrotation Yrotation Xrotation
										JOINT RightHandPinky2
										{
											OFFSET -0.000000 3.350399 0.000000
											CHANNELS 3 Zrotation Yrotation Xrotation
											JOINT RightHandPinky3
											{
												OFFSET -0.000000 2.842763 -0.000000
												CHANNELS 3 Zrotation Yrotation Xrotation
												JOINT RightHandPinky4
												{
													OFFSET 0.000000 2.639709 0.000000
													CHANNELS 3 Zrotation Yrotation Xrotation
													End Site
													{
														OFFSET 0.000000 0.000000 0.000000
													}
												}
											}
										}
									}
									JOINT RightForeArmEnd
									{
										OFFSET 0.000000 0.000000 0.000000
										CHANNELS 3 Zrotation Yrotation Xrotation
										End Site
										{
											OFFSET 0.000000 0.000000 0.000000
										}
									}
								}
								JOINT RightArmEnd
								{
									OFFSET 0.000000 0.000000 0.000000
									CHANNELS 3 Zrotation Yrotation Xrotation
									End Site
									{
										OFFSET 0.000000 0.000000 0.000000
									}
								}
							}
						}
					}
					JOINT LeftShoulder
					{
						OFFSET 2.625389 11.175210 -0.000000
						CHANNELS 3 Zrotation Yrotation Xrotation
						JOINT LeftArm
						{
							OFFSET -0.000000 10.813635 0.000000
							CHANNELS 3 Zrotation Yrotation Xrotation
							JOINT LeftForeArm
							{
								OFFSET -0.000000 28.724781 -0.000000
								CHANNELS 3 Zrotation Yrotation Xrotation
								JOINT LeftHand
								{
									OFFSET 0.644384 25.716167 -0.328871
									CHANNELS 3 Zrotation Yrotation Xrotation
									JOINT LeftHandThumb1
									{
										OFFSET 2.867323 3.959563 2.944291
										CHANNELS 3 Zrotation Yrotation Xrotation
										JOINT LeftHandThumb2
										{
											OFFSET -0.000000 3.350399 -0.000000
											CHANNELS 3 Zrotation Yrotation Xrotation
											JOINT LeftHandThumb3
											{
												OFFSET 0.000000 3.756509 0.000000
												CHANNELS 3 Zrotation Yrotation Xrotation
												JOINT LeftHandThumb4
												{
													OFFSET 0.000000 3.100000 0.000000
													CHANNELS 3 Zrotation Yrotation Xrotation
													End Site
													{
														OFFSET 0.000000 0.000000 0.000000
													}
												}
											}
										}
									}
									JOINT LeftHandIndex1
									{
										OFFSET 0.086752 10.030893 2.345280
										CHANNELS 3 Zrotation Yrotation Xrotation
										JOINT LeftHandIndex2
										{
											OFFSET 0.000000 4.061090 0.000000
											CHANNELS 3 Zrotation Yrotation Xrotation
											JOINT LeftHandIndex3
											{
												OFFSET 0.000000 3.248873 -0.000000
												CHANNELS 3 Zrotation Yrotation Xrotation
												JOINT LeftHandIndex4
												{
													OFFSET 0.000000 2.639709 0.000000
													CHANNELS 3 Zrotation Yrotation Xrotation
													End Site
													{
														OFFSET 0.000000 0.000000 0.000000
													}
												}
											}
										}
									}
									JOINT LeftHandMiddle1
									{
										OFFSET -0.104102 9.502952 0.006768
										CHANNELS 3 Zrotation Yrotation Xrotation
										JOINT LeftHandMiddle2
										{
											OFFSET -0.000000 4.568727 -0.000000
											CHANNELS 3 Zrotation Yrotation Xrotation
											JOINT LeftHandMiddle3
											{
												OFFSET 0.000000 3.654981 0.000000
												CHANNELS 3 Zrotation Yrotation Xrotation
												JOINT LeftHandMiddle4
												{
													OFFSET 0.000000 2.741236 0.000000
													CHANNELS 3 Zrotation Yrotation Xrotation
													End Site
													{
														OFFSET 0.000000 0.000000 0.000000
													}
												}
											}
										}
									}
									JOINT LeftHandRing1
									{
										OFFSET -0.086752 8.921708 -2.267442
										CHANNELS 3 Zrotation Yrotation Xrotation
										JOINT LeftHandRing2
										{
											OFFSET 0.000000 4.061090 0.000000
											CHANNELS 3 Zrotation Yrotation Xrotation
											JOINT LeftHandRing3
											{
												OFFSET -0.000000 3.654981 -0.000000
												CHANNELS 3 Zrotation Yrotation Xrotation
												JOINT LeftHandRing4
												{
													OFFSET 0.000000 2.741236 -0.000000
													CHANNELS 3 Zrotation Yrotation Xrotation
													End Site
													{
														OFFSET 0.000000 0.000000 0.000000
													}
												}
											}
										}
									}
									JOINT LeftHandPinky1
									{
										OFFSET 0.173504 7.976997 -4.467199
										CHANNELS 3 Zrotation Yrotation Xrotation
										JOINT LeftHandPinky2
										{
											OFFSET -0.000000 3.350399 -0.000000
											CHANNELS 3 Zrotation Yrotation Xrotation
											JOINT LeftHandPinky3
											{
												OFFSET 0.000000 2.842763 0.000000
												CHANNELS 3 Zrotation Yrotation Xrotation
												JOINT LeftHandPinky4
												{
													OFFSET 0.000000 2.639709 0.000000
													CHANNELS 3 Zrotation Yrotation Xrotation
													End Site
													{
														OFFSET 0.000000 0.000000 0.000000
													}
												}
											}
										}
									}
									JOINT LeftForeArmEnd
									{
										OFFSET 0.000000 0.000000 0.000000
										CHANNELS 3 Zrotation Yrotation Xrotation
										End Site
										{
											OFFSET 0.000000 0.000000 0.000000
										}
									}
								}
								JOINT LeftArmEnd
								{
									OFFSET 0.000000 0.000000 0.000000
									CHANNELS 3 Zrotation Yrotation Xrotation
									End Site
									{
										OFFSET 0.000000 0.000000 0.000000
									}
								}
							}
						}
					}
				}
			}
		}
	}
	JOINT RightUpLeg
	{
		OFFSET -11.289943 0.000000 0.000000
		CHANNELS 3 Zrotation Yrotation Xrotation
		JOINT RightLeg
		{
			OFFSET -0.000000 -38.200325 0.000000
			CHANNELS 3 Zrotation Yrotation Xrotation
			JOINT RightFoot
			{
				OFFSET 0.000000 -39.900856 -0.000000
				CHANNELS 3 Zrotation Yrotation Xrotation
				JOINT RightToeBase
				{
					OFFSET 0.000000 -0.000000 15.261641
					CHANNELS 3 Zrotation Yrotation Xrotation
					JOINT RightToeBaseEnd
					{
						OFFSET 0.000000 -0.000000 7.370709
						CHANNELS 3 Zrotation Yrotation Xrotation
						End Site
						{
							OFFSET 0.000000 0.000000 0.000000
						}
					}
				}
				JOINT RightLegEnd
				{
					OFFSET 0.000000 0.000000 0.000000
					CHANNELS 3 Zrotation Yrotation Xrotation
					End Site
					{
						OFFSET 0.000000 0.000000 0.000000
					}
				}
			}
			JOINT RightUpLegEnd
			{
				OFFSET 0.000000 0.000000 0.000000
				CHANNELS 3 Zrotation Yrotation Xrotation
				End Site
				{
					OFFSET 0.000000 0.000000 0.000000
				}
			}
		}
	}
	JOINT LeftUpLeg
	{
		OFFSET 11.315661 -0.000000 -0.000000
		CHANNELS 3 Zrotation Yrotation Xrotation
		JOINT LeftLeg
		{
			OFFSET 0.000000 -38.200325 0.000000
			CHANNELS 3 Zrotation Yrotation Xrotation
			JOINT LeftFoot
			{
				OFFSET 0.000000 -39.900856 -0.000000
				CHANNELS 3 Zrotation Yrotation Xrotation
				JOINT LeftToeBase
				{
					OFFSET -0.000000 0.000000 15.261641
					CHANNELS 3 Zrotation Yrotation Xrotation
					JOINT LeftToeBaseEnd
					{
						OFFSET -0.000000 -0.000000 7.539996
						CHANNELS 3 Zrotation Yrotation Xrotation
						End Site
						{
							OFFSET 0.000000 0.000000 0.000000
						}
					}
				}
				JOINT LeftLegEnd
				{
					OFFSET 0.000000 0.000000 0.000000
					CHANNELS 3 Zrotation Yrotation Xrotation
					End Site
					{
						OFFSET 0.000000 0.000000 0.000000
					}
				}
			}
			JOINT LeftUpLegEnd
			{
				OFFSET 0.000000 0.000000 0.000000
				CHANNELS 3 Zrotation Yrotation Xrotation
				End Site
				{
					OFFSET 0.000000 0.000000 0.000000
				}
			}
		}
	}
}
MOTION
Frames: 4
Frame Time: 0.016667
3.402734 86.170761 9.970948 -0.616250 -7.327600 -23.745808 -1.770571 0.465993 10.790068 -0.342098 0.328989 2.462918 1.764817 0.810842 17.868940 1.960920 0.706543 10.662807 -2.535075 1.255163 13.859954 0.289808 -0.076694 -0.171954 -0.234582 0.348049 -21.088711 0.000000 0.000000 0.000000 91.042679 -0.430856 13.102479 56.832996 -17.475225 17.476997 0.604976 11.997758 23.441750 8.972891 42.112545 -2.202348 0.763030 -0.251064 44.579220 0.000005 -0.000020 -1.899548 -0.000020 0.000052 -1.233502 0.000020 0.000008 -0.000006 7.970537 16.597124 -10.497679 8.122783 -0.831459 -2.379627 7.811905 0.147961 -2.252048 -0.000020 0.000012 0.000002 9.036275 6.856390 -10.420733 7.983630 -0.926655 -0.926822 7.793993 0.048743 -0.809668 0.000003 -0.000116 0.000011 14.729488 -8.792927 -10.213054 9.358311 1.884506 1.354954 9.407681 -0.076551 1.059946 -0.000007 -0.000601 0.000013 20.695379 -25.017626 -11.206182 9.979208 3.606627 4.165071 9.909016 -0.292608 3.565481 -0.000210 0.000000 -0.000025 0.000000 0.000000 0.000000 0.000000 0.000000 0.000000 -89.822601 0.111064 13.294744 -57.295544 21.465223 13.276144 -0.995216 -19.781393 51.148434 -11.007102 -38.963364 -3.581993 -1.595631 0.314000 44.267189 0.000022 0.000028 -4.182818 0.000018 -0.000015 -2.802470 -0.000473 0.000007 0.000050 -17.430019 16.625536 -9.009583 -10.356083 -0.729134 2.789617 -10.140802 0.244226 2.611859 -0.000014 -0.000689 0.000001 -15.313355 6.881676 -9.626633 -10.165643 -0.898419 1.054063 -10.111588 0.079169 0.913154 0.000104 -0.000028 -0.000197 -15.053063 -8.876757 -9.450412 -11.538758 1.830699 -1.492482 -11.435911 -0.105541 -1.133997 -0.000172 0.000002 -0.000006 -12.342402 -25.459091 -11.942572 -11.457283 3.535865 -4.176876 -11.531904 -0.338978 -3.527766 0.000324 -0.000001 -0.000038 0.000000 0.000000 0.000000 0.000000 0.000000 0.000000 -2.544654 7.150369 14.430196 -0.359157 -0.612620 27.705902 0.234126 -3.501891 8.738447 -0.793471 1.108614 -19.298754 0.000000 0.000000 0.000000 0.000000 0.000000 0.000000 0.000000 0.000000 0.000000 5.581979 4.185501 19.916962 0.290349 0.711410 23.087193 -2.025821 10.448922 7.470521 1.074871 -1.315111 -15.670060 0.000000 0.000000 0.000000 0.000000 0.000000 0.000000 0.000000 0.000000 0.000000 
3.422377 86.185181 9.975868 -0.609422 -7.399618 -23.759693 -1.756110 0.462991 10.791518 -0.339807 0.324704 2.463271 1.765938 0.830494 17.825651 1.963610 0.720436 10.655168 -2.458209 1.238028 13.918200 0.294664 -0.066827 -0.145224 -0.232989 0.344235 -21.120432 0.000000 0.000000 0.000000 91.109009 -0.441771 13.103003 56.989864 -16.509842 17.385775 0.619208 12.407105 23.498158 9.483627 43.284775 -1.733269 0.761262 -0.250462 44.580372 0.000005 -0.000020 -1.891790 -0.000020 0.000053 -1.231365 0.000020 0.000008 -0.000006 8.001613 16.591942 -10.318356 8.101117 -0.829231 -2.379387 7.779274 0.150150 -2.252653 -0.000020 0.000013 0.000002 9.066120 6.854579 -10.280282 7.973017 -0.925600 -0.927819 7.789466 0.049411 -0.810824 0.000003 -0.000114 0.000010 14.796165 -8.789020 -10.126505 9.379157 1.882324 1.359878 9.431868 -0.077941 1.063619 -0.000007 -0.000648 0.000014 20.816290 -24.998037 -11.181935 10.037188 3.597590 4.189371 9.967406 -0.299278 3.583322 -0.000210 0.000000 -0.000025 0.000000 0.000000 0.000000 0.000000 0.000000 0.000000 -89.851074 0.099327 13.253724 -58.138985 19.863211 12.976730 -1.050185 -20.304634 51.718891 -11.114050 -40.958221 -2.785775 -1.598821 0.313376 44.268517 0.000023 0.000028 -4.180119 0.000019 -0.000016 -2.796873 -0.000455 0.000007 0.000085 -17.296110 16.615065 -8.721130 -10.266835 -0.727565 2.792848 -10.049986 0.245858 2.613829 -0.000015 -0.000710 0.000000 -15.256878 6.876669 -9.377279 -10.098882 -0.897709 1.056017 -10.047335 0.079740 0.914811 0.000106 -0.000027 -0.000197 -15.115147 -8.870234 -9.289314 -11.524460 1.828382 -1.496595 -11.421411 -0.106877 -1.136496 -0.000230 0.000002 -0.000006 -12.495584 -25.440292 -11.875251 -11.497756 3.529825 -4.196178 -11.564228 -0.344007 -3.540416 0.000341 -0.000001 -0.000037 0.000000 0.000000 0.000000 0.000000 0.000000 0.000000 -2.558815 7.220150 14.464340 -0.359319 -0.614211 27.619766 0.232281 -3.456681 8.785583 -0.798905 1.106786 -19.283663 0.000000 0.000000 0.000000 0.000000 0.000000 0.000000 0.000000 0.000000 0.000000 5.557917 4.190798 19.953543 0.289689 0.713085 23.025160 -2.028113 10.515338 7.489909 1.076327 -1.317885 -15.658162 0.000000 0.000000 0.000000 0.000000 0.000000 0.000000 0.000000 0.000000 0.000000 
3.442566 86.198837 9.980714 -0.601118 -7.472418 -23.771294 -1.744309 0.460023 10.790977 -0.339676 0.319633 2.463164 1.772386 0.838438 17.782051 1.971029 0.729262 10.647667 -2.378339 1.230604 13.971139 0.303242 -0.042042 -0.120802 -0.233366 0.341014 -21.151236 0.000000 0.000000 0.000000 91.165337 -0.450033 13.101467 57.150928 -15.501180 17.280615 0.629523 12.821268 23.602442 10.010868 44.458900 -1.220535 0.760287 -0.249617 44.581566 0.000006 -0.000021 -1.886046 -0.000021 0.000053 -1.230806 0.000020 0.000008 -0.000005 8.033863 16.588974 -10.125363 8.086382 -0.827051 -2.379021 7.753288 0.152332 -2.253221 -0.000020 0.000013 0.000002 9.092874 6.853794 -10.130895 7.968989 -0.924602 -0.928732 7.791040 0.050053 -0.811860 0.000004 -0.000112 0.000010 14.851120 -8.786777 -10.040421 9.402390 1.880286 1.364290 9.458028 -0.079222 1.066880 -0.000007 -0.000703 0.000014 20.918514 -24.982174 -11.164753 10.091702 3.589408 4.210502 10.022837 -0.305323 3.598485 -0.000208 0.000000 -0.000026 0.000000 0.000000 0.000000 0.000000 0.000000 0.000000 -89.862633 0.085896 13.219711 -58.984055 18.255293 12.719641 -1.111671 -20.823204 52.260620 -11.195028 -42.910011 -2.020668 -1.599503 0.312551 44.271179 0.000023 0.000028 -4.169584 0.000019 -0.000016 -2.786296 -0.000435 0.000008 0.000113 -17.132534 16.607203 -8.422480 -10.168554 -0.726221 2.794745 -9.950821 0.247233 2.614594 -0.000015 -0.000726 -0.000000 -15.173088 6.872559 -9.123573 -10.023482 -0.897120 1.057479 -9.975307 0.080208 0.916024 0.000108 -0.000027 -0.000198 -15.147305 -8.864763 -9.132928 -11.498765 1.826319 -1.499941 -11.395670 -0.108082 -1.138468 -0.000288 0.000002 -0.000006 -12.617004 -25.424219 -11.820670 -11.526624 3.524473 -4.213169 -11.585673 -0.348584 -3.551172 0.000357 -0.000000 -0.000037 0.000000 0.000000 0.000000 0.000000 0.000000 0.000000 -2.576447 7.291907 14.495877 -0.359518 -0.615959 27.535349 0.233426 -3.411497 8.832069 -0.804739 1.105416 -19.269054 0.000000 0.000000 0.000000 0.000000 0.000000 0.000000 0.000000 0.000000 0.000000 5.531955 4.196193 19.986706 0.289220 0.714765 22.967831 -2.028620 10.578950 7.505214 1.076480 -1.320475 -15.645924 0.000000 0.000000 0.000000 0.000000 0.000000 0.000000 0.000000 0.000000 0.000000 
3.462932 86.211494 9.985311 -0.591743 -7.544395 -23.779964 -1.735318 0.457133 10.787863 -0.342189 0.314068 2.464350 1.784308 0.834829 17.737791 1.982609 0.733117 10.641370 -2.291265 1.228490 14.015041 0.315750 -0.005643 -0.100660 -0.234976 0.338176 -21.180468 0.000000 0.000000 0.000000 91.208488 -0.455580 13.095784 57.320507 -14.439088 17.156427 0.636154 13.240708 23.771036 10.574574 45.643681 -0.650900 0.761087 -0.248574 44.582539 0.000006 -0.000021 -1.884440 -0.000021 0.000053 -1.233319 0.000019 0.000008 -0.000005 8.069766 16.589071 -9.917823 8.081280 -0.824905 -2.378323 7.736816 0.154517 -2.253533 -0.000021 0.000014 0.000002 9.118947 6.854387 -9.971166 7.974333 -0.923659 -0.929505 7.801517 0.050682 -0.812716 0.000004 -0.000110 0.000010 14.898221 -8.786567 -9.952693 9.431274 1.878394 1.368101 9.489319 -0.080418 1.069679 -0.000007 -0.000767 0.000014 21.008059 -24.970726 -11.152392 10.146514 3.581964 4.228580 10.078985 -0.310878 3.611122 -0.000206 0.000000 -0.000026 0.000000 0.000000 0.000000 0.000000 0.000000 0.000000 -89.856918 0.070814 13.192163 -59.825268 16.647219 12.500273 -1.178451 -21.336370 52.788631 -11.279916 -44.819462 -1.273195 -1.599067 0.311661 44.274632 0.000023 0.000028 -4.154964 0.000018 -0.000016 -2.773122 -0.000413 0.000008 0.000134 -16.949028 16.601856 -8.118341 -10.067448 -0.725001 2.795717 -9.849458 0.248449 2.614459 -0.000015 -0.000738 -0.000001 -15.070120 6.869432 -8.868731 -9.945565 -0.896614 1.058591 -9.901354 0.080605 0.916918 0.000111 -0.000026 -0.000199 -15.156305 -8.860662 -8.982814 -11.467537 1.824435 -1.502748 -11.364546 -0.109210 -1.140074 -0.000345 0.000002 -0.000006 -12.711261 -25.412039 -11.778298 -11.548212 3.519631 -4.228530 -11.600848 -0.352858 -3.560551 0.000374 0.000000 -0.000036 0.000000 0.000000 0.000000 0.000000 0.000000 0.000000 -2.597098 7.364041 14.524307 -0.359775 -0.617802 27.453627 0.237178 -3.367036 8.877382 -0.810746 1.104514 -19.255238 0.000000 0.000000 0.000000 0.000000 0.000000 0.000000 0.000000 0.000000 0.000000 5.505177 4.202323 20.015232 0.288952 0.716375 22.916525 -2.027642 10.638947 7.515717 1.075417 -1.322713 -15.633712 0.000000 0.000000 0.000000 0.000000 0.000000 0.000000 0.000000 0.000000 0.000000 
